<svg viewBox="0 0 603 685" width="603" height="685" xmlns="http://www.w3.org/2000/svg" xmlns:xlink="http://www.w3.org/1999/xlink">
    <defs>
        <linearGradient x1="3.311%" y1="3.278%" x2="96.35%" y2="95.406%" id="b">
            <stop stop-color="#90F1FF" offset="0%"/>
            <stop stop-color="#5889E2" offset="63.111%"/>
            <stop stop-color="#3255F7" offset="100%"/>
        </linearGradient>
        <linearGradient x1="9.43%" y1="-1.965%" x2="92.64%" y2="103.464%" id="c">
            <stop stop-color="#6B6FF6" offset="0%"/>
            <stop stop-color="#463ECE" offset="63.697%"/>
            <stop stop-color="#2525B1" offset="100%"/>
        </linearGradient>
        <path
            d="M299 3.715 560.497 154.77a25 25 0 0 1 12.495 21.648v302.131a25 25 0 0 1-12.495 21.648L299.001 651.25a25 25 0 0 1-25.01 0L12.495 500.196A25 25 0 0 1 0 478.548v-302.13a25 25 0 0 1 12.495-21.649L273.991 3.715a25 25 0 0 1 25.01 0z"
            id="a"/>
    </defs>
    <g fill="none" fill-rule="evenodd">
        <g transform="translate(15 15)">
            <mask id="d" fill="#fff">
                <use xlink:href="#a"/>
            </mask>
            <use fill="url(#b)" xlink:href="#a"/>
            <path
                d="M35.647 252.011c21.932-3.075 37.854-5.074 47.765-5.998 1.936-.181 10.125 14.85 24.566 45.093-2.393-25.948-7.031-50.77-13.914-74.467-6.884-23.697-14.722-43.6-23.515-59.71 16.929 13.064 31.735 27.113 44.418 42.147 19.024 22.55 31.249 41.021 35.558 40.104 23.847-5.076 138.184-33.33 343.01-84.76a2 2 0 0 1 2.333 1.17L619.5 451.887l-17.13 27.682c-37.95 95.715-58.096 149.787-60.437 162.214-2.34 12.428 3.703 33.23 18.13 62.407-37.045-18.951-64.85-34.721-83.417-47.31-18.567-12.59-40.905-30.82-67.015-54.692-3.664-10.381-6.237-19.077-7.717-26.088-1.413-6.693-3.553-16.908-6.422-30.644a5 5 0 0 0-2.088-3.116c-7.96-5.399-13.698-8.945-17.21-10.639-3.173-1.53-11.255-6.717-31.107-11.72-12.676-3.194-21.68-3.328-27.015-.402a2 2 0 0 0-.924 1.09l-8.155 23.185a2 2 0 0 1-1.988 1.334c-36.963-1.88-64.85-1.763-83.66.35-4.236.475-20.656-.87-49.262 1.206-19.07 1.383-36.007 3.043-50.812 4.977l-4.462 10.01-41.789-23.99 10.801-23.289a3.5 3.5 0 0 1 3.97-1.936l27.347 6.382c17.413-3.333 33.457-6.227 48.133-8.68 14.675-2.455 32.373-4.71 53.095-6.77-5.05-20.56-5.137-40.919-.263-61.074 4.875-20.155 11.212-43.85 19.013-71.087-17.495 22.938-28.46 41.958-32.898 57.06-4.072 13.857-6.26 24.615-6.563 32.274a2 2 0 0 1-2.067 1.92l-91.35-3.154a2 2 0 0 1-1.882-1.555c-10.411-45.84-19.518-80.014-27.32-102.52-7.744-22.346-22.052-55.837-42.923-100.473a2 2 0 0 1 1.534-2.828z"
                fill="url(#c)" mask="url(#d)"/>
            <path
                d="M116.583 519.883c3.179 2.426 5.984 6.293 8.416 11.602 2.432 5.309 3.91 10.826 4.435 16.552.302-8.466.015-14.893-.86-19.28-.875-4.388-2.517-8.282-4.926-11.683l-7.065 2.81z"
                fill="#2C21A0" mask="url(#d)" transform="rotate(11 123.067 532.555)"/>
            <path
                d="M316.57 522.221c6.92-25.959 12.32-44.277 16.204-54.955 3.883-10.679 10.308-24.851 19.277-42.517-8.793 24.35-14.957 44.908-18.492 61.674-3.536 16.767-5.445 27.114-5.728 31.04-2.88.209-4.942.576-6.189 1.103-1.247.527-2.937 1.745-5.073 3.655z"
                fill="#2C21A0" mask="url(#d)"/>
            <path
                d="M396.438 586.256c9.203-26.68 16.407-46.385 21.612-59.118 1.662-4.065 3.3-7.492 4.913-10.281l3.504 4.63c-.624 2.043-1.17 3.74-1.636 5.089-3.184 9.192-5.615 21.825-7.292 37.9-4.77 2.55-8.285 4.993-10.545 7.326-2.261 2.334-5.78 7.152-10.556 14.454z"
                fill="#2C21A0" mask="url(#d)" transform="rotate(97 411.453 551.556)"/>
        </g>
    </g>
</svg>
