<?xml version="1.0" encoding="UTF-8"?>
<svg width="603px" height="685px" viewBox="0 0 603 685" version="1.1" xmlns="http://www.w3.org/2000/svg" xmlns:xlink="http://www.w3.org/1999/xlink">
    <!-- Generator: Sketch 44.1 (41455) - http://www.bohemiancoding.com/sketch -->
    <title>hexagon/logos/blue/logos-hexagon-blue</title>
    <desc>Created with Sketch.</desc>
    <defs>
        <linearGradient x1="0%" y1="0%" x2="98.8868215%" y2="97.9173437%" id="linearGradient-1">
            <stop stop-color="#FFF690" offset="0%"></stop>
            <stop stop-color="#F73265" offset="100%"></stop>
        </linearGradient>
        <linearGradient x1="3.31094268%" y1="3.27848249%" x2="96.3504029%" y2="95.405792%" id="linearGradient-2">
            <stop stop-color="#90F1FF" offset="0%"></stop>
            <stop stop-color="#5889E2" offset="63.1111018%"></stop>
            <stop stop-color="#3255F7" offset="100%"></stop>
        </linearGradient>
        <path d="M299.000683,3.7151298 L560.496431,154.769267 L560.496431,154.769267 C568.228676,159.235832 572.991495,167.487448 572.991495,176.417052 L572.991495,478.548125 L572.991495,478.548125 C572.991495,487.477729 568.228676,495.729345 560.496431,500.19591 L299.000683,651.250047 L299.000683,651.250047 C291.263148,655.719667 281.728347,655.719667 273.990812,651.250047 L12.4950645,500.19591 L12.4950645,500.19591 C4.76281902,495.729345 2.34479103e-13,487.477729 2.13162821e-13,478.548125 L8.52651283e-14,176.417052 L1.13686838e-13,176.417052 C9.23705556e-14,167.487448 4.76281902,159.235832 12.4950645,154.769267 L273.990812,3.7151298 L273.990812,3.7151298 C281.728347,-0.754490431 291.263148,-0.754490431 299.000683,3.7151298 Z" id="path-3"></path>
        <linearGradient x1="9.43044958%" y1="-1.96493998%" x2="92.6401197%" y2="103.463939%" id="linearGradient-5">
            <stop stop-color="#6B6FF6" offset="0%"></stop>
            <stop stop-color="#463ECE" offset="63.6965346%"></stop>
            <stop stop-color="#2525B1" offset="100%"></stop>
        </linearGradient>
    </defs>
    <g id="Page-1" stroke="none" stroke-width="1" fill="none" fill-rule="evenodd">
        <g id="Logos-hexagon-" transform="translate(-1394.000000, -1179.000000)">
            <g id="blue-hex" transform="translate(1409.000000, 1194.000000)">
                <mask id="mask-4" fill="white">
                    <use xlink:href="#path-3"></use>
                </mask>
                <use id="hexagon" fill="url(#linearGradient-2)" xlink:href="#path-3"></use>
                <path d="M35.6474524,252.011052 C57.5792716,248.936263 73.5006627,246.936786 83.4116256,246.012623 C85.3483447,245.83203 93.5371578,260.863118 107.978065,291.105887 C105.585122,265.157924 100.947006,240.335538 94.0637153,216.638728 C87.180425,192.941918 79.3422018,173.038673 70.5490457,156.928991 C87.4778221,169.993303 102.28373,184.042325 114.966768,199.076057 C133.991326,221.626655 146.215857,240.097062 150.524568,239.179957 C174.371981,234.104053 288.708722,205.850827 493.534794,154.420279 L493.534793,154.420279 C494.494688,154.179256 495.486516,154.676533 495.867628,155.589903 L619.500024,451.886805 L602.369475,479.569058 C564.419303,575.284459 544.273883,629.355903 541.933213,641.783391 C539.592543,654.210878 545.635807,675.013029 560.063006,704.189842 C523.018243,685.238792 495.212531,669.468619 476.645872,656.879326 C458.079212,644.290032 435.741013,626.059666 409.631273,602.188228 C405.966733,591.806549 403.394451,583.110518 401.914426,576.100135 C400.501307,569.406665 398.360528,559.192058 395.492088,545.456313 L395.492088,545.456313 C395.226816,544.186041 394.478074,543.06866 393.404087,542.340296 C385.443102,536.941267 379.706378,533.394853 376.193916,531.701054 C373.020556,530.17078 364.938681,524.983896 345.087223,519.981246 C332.411458,516.7869 323.406519,516.652869 318.072405,519.579152 L318.072405,519.579152 C317.640435,519.81613 317.31114,520.20422 317.147659,520.669012 L308.992849,543.853801 L308.992849,543.853801 C308.698801,544.689805 307.889655,545.232614 307.004588,545.18761 C270.042109,543.308142 242.155663,543.424767 223.345249,545.537486 C219.109154,546.013269 202.688596,544.667744 174.083243,546.743522 C155.013007,548.127375 138.07571,549.786593 123.271353,551.721178 L118.809238,561.731591 L77.0200202,537.740979 L87.8210762,514.452203 L87.8210762,514.452203 C88.518817,512.947764 90.1765855,512.139506 91.7915654,512.51636 L119.138093,518.897647 C136.551056,515.564583 152.595231,512.671095 167.270617,510.217183 C181.946003,507.763271 199.64439,505.507123 220.365777,503.448739 C215.316545,482.887324 215.229057,462.529137 220.103312,442.374177 C224.977567,422.219217 231.315081,398.523411 239.115852,371.286759 C221.621355,394.225102 210.65524,413.24527 206.217505,428.347263 C202.145687,442.20401 199.958233,452.962045 199.655142,460.621369 L199.655142,460.621369 C199.611622,461.721142 198.687679,462.579072 197.587701,462.541097 L106.237337,459.387391 L106.237337,459.387391 C105.329728,459.356058 104.557159,458.71715 104.356016,457.831555 C93.9445572,411.991836 84.8381737,377.818415 77.0368653,355.311293 C69.2916535,332.966011 54.9838285,299.475177 34.1133904,254.83879 L34.1133901,254.83879 C33.6455452,253.838192 34.0774264,252.647785 35.0780239,252.17994 C35.2583697,252.095616 35.4502951,252.038693 35.6474524,252.011052 Z" id="Combined-Shape-Copy" fill="url(#linearGradient-5)" mask="url(#mask-4)"></path>
                <path d="M116.582959,519.883342 C119.761882,522.308731 122.567273,526.175894 124.999134,531.484832 C127.430996,536.79377 128.909309,542.311044 129.434074,548.036655 C129.73578,539.570689 129.449088,533.143889 128.573997,528.756255 C127.698906,524.368621 126.05691,520.474513 123.648009,517.07393 L116.582959,519.883342 Z" id="sh-hooves" fill="#2C21A0" mask="url(#mask-4)" transform="translate(123.066530, 532.555292) rotate(11.000000) translate(-123.066530, -532.555292) "></path>
                <path d="M316.569498,522.22129 C323.489134,496.262444 328.890477,477.943871 332.773526,467.265572 C336.656575,456.587272 343.082322,442.415045 352.050767,424.74889 C343.258067,449.09874 337.094046,469.65694 333.558704,486.423491 C330.023362,503.190043 328.114151,513.536824 327.831072,517.463836 C324.951591,517.671974 322.888557,518.039353 321.641973,518.565973 C320.395388,519.092593 318.704563,520.311032 316.569498,522.22129 Z" id="sh-legs" fill="#2C21A0" mask="url(#mask-4)"></path>
                <path d="M396.438203,586.255751 C405.641322,559.576572 412.845211,539.870761 418.049868,527.138317 C419.711645,523.07302 421.349402,519.645761 422.963139,516.85654 L426.467276,521.486323 C425.843333,523.530421 425.297768,525.226927 424.83058,526.575841 C421.646838,535.768287 419.216279,548.401403 417.538904,564.475188 C412.769203,567.026606 409.254076,569.469009 406.993523,571.802396 C404.73297,574.135784 401.21453,578.953569 396.438203,586.255751 Z" id="sh-belly" fill="#2C21A0" mask="url(#mask-4)" transform="translate(411.452740, 551.556145) rotate(97.000000) translate(-411.452740, -551.556145) "></path>
            </g>
            <g id="NAME" transform="translate(350.000000, -8.000000)"></g>
        </g>
    </g>
</svg>