<?xml version="1.0" encoding="UTF-8" standalone="no"?><svg xmlns="http://www.w3.org/2000/svg" version="1.1" width="450" height="300"><rect width="450" height="300" rx="0" ry="0" x="0" y="0" fill="#bc0000"/><path d="M80.995 20.086h15.77l4.871-15.126 4.871 15.126h15.77l-12.756 9.347 4.871 15.126-12.756-9.347-12.756 9.347 4.871-15.126z" fill="#fcd116"/><path d="M88.563 22.565h9.988l3.085-9.58 3.085 9.58h9.987l-8.079 5.92 3.085 9.58-8.078-5.92-8.08 5.92 3.086-9.58z" fill="#bc0000"/><path d="M71.978 57.956c95.443-14.517 75.03 108.526 5.263 64.064.86-1.179.302-.562 1.211-1.774l-3.9-3.787c-.429.188-1.113.609-1.712 1.022-.81-.842-2.142-1.857-2.897-2.85l-4.605 3.806c.564.76 2.14 2.357 2.744 3.055-3.108 2.617-10.89 9.378-12.017 11.01-4.805 5.998 4.248 13.716 8.724 8.797 1.758-1.39 6.491-8.792 9.638-13.374 8.022 8.436 18.95 14.326 33.652 14.059 3.289-.06 22.546-.847 34.86-21.51 9.008-15.119 6.416-37.823-9.724-53.498-17.53-17.027-43.743-15.704-61.237-9.02z" fill="#fcd116"/><path d="M94.345 84.279l12.08-12.114-3.992-3.724-15.822-1.092-22.633 21.14 12.727 12.616 10.89-10.128c16.567 17.227 47.774 49.943 50.284 52.78 2.51 2.838 10.216-3.871 7.648-6.834-2.568-2.962-39.732-42.67-51.182-52.644z" fill="#fcd116"/></svg>