<?xml version="1.0" encoding="UTF-8" ?>
<!DOCTYPE svg PUBLIC "-//W3C//DTD SVG 1.1//EN" "http://www.w3.org/Graphics/SVG/1.1/DTD/svg11.dtd">
<svg width="1000pt" height="600pt" viewBox="0 0 1000 600" version="1.1" xmlns="http://www.w3.org/2000/svg">
<g id="#dd0000ff">
<path fill="#dd0000" opacity="1.00" d=" M 0.00 0.00 L 1000.00 0.00 L 1000.00 600.00 L 0.00 600.00 L 0.00 0.00 M 431.48 75.82 C 380.50 79.64 331.29 101.99 294.50 137.40 C 268.62 162.10 248.73 193.04 237.18 226.90 C 224.57 263.42 221.78 303.23 228.82 341.20 C 237.28 387.65 261.09 431.08 295.46 463.42 C 324.75 491.21 361.67 510.96 401.14 519.57 C 443.81 529.21 489.28 525.83 530.13 510.23 C 567.39 496.02 600.74 471.72 625.60 440.54 C 651.24 408.66 667.94 369.65 673.07 329.05 C 678.91 284.54 671.14 238.30 650.70 198.30 C 632.50 162.24 604.32 131.33 570.19 109.77 C 529.31 83.64 479.77 71.72 431.48 75.82 Z" />
</g>
<g id="#ffffffff">
<path fill="#ffffff" opacity="1.00" d=" M 431.48 75.82 C 479.77 71.72 529.31 83.64 570.19 109.77 C 604.32 131.33 632.50 162.24 650.70 198.30 C 671.14 238.30 678.91 284.54 673.07 329.05 C 667.94 369.65 651.24 408.66 625.60 440.54 C 600.74 471.72 567.39 496.02 530.13 510.23 C 489.28 525.83 443.81 529.21 401.14 519.57 C 361.67 510.96 324.75 491.21 295.46 463.42 C 261.09 431.08 237.28 387.65 228.82 341.20 C 221.78 303.23 224.57 263.42 237.18 226.90 C 248.73 193.04 268.62 162.10 294.50 137.40 C 331.29 101.99 380.50 79.64 431.48 75.82 M 360.36 115.04 C 361.82 118.96 363.57 122.77 365.29 126.59 C 366.16 127.82 366.74 129.22 367.24 130.64 C 369.22 136.12 372.44 141.09 374.25 146.60 C 376.35 151.32 378.89 155.96 380.20 160.99 C 380.51 161.38 381.15 162.17 381.47 162.56 C 381.26 164.06 381.93 165.35 382.87 166.47 C 382.94 166.98 383.09 168.00 383.16 168.51 C 384.20 170.44 384.70 172.62 385.84 174.51 C 385.92 175.02 386.06 176.03 386.13 176.54 C 387.99 178.49 387.06 181.50 388.85 183.50 C 388.93 184.01 389.09 185.02 389.17 185.53 C 390.52 187.69 390.35 190.41 391.81 192.53 C 392.39 196.29 393.00 200.25 394.80 203.63 C 394.97 204.93 395.13 206.24 395.53 207.49 C 396.85 210.07 395.68 213.36 397.87 215.56 C 398.08 220.30 399.62 224.81 400.20 229.52 C 401.66 231.55 400.57 234.26 401.48 236.52 C 402.58 239.01 402.33 241.76 402.40 244.42 C 402.93 245.84 402.89 247.58 404.16 248.64 C 403.17 249.44 402.46 251.36 400.95 250.92 C 394.07 249.36 386.89 249.49 380.18 247.29 C 372.49 246.55 365.23 243.75 357.59 242.73 C 353.24 240.24 347.89 240.64 343.42 238.35 C 341.38 237.94 339.36 237.44 337.41 236.73 C 335.19 235.74 332.86 234.98 330.50 234.45 C 329.98 234.27 328.95 233.90 328.44 233.72 C 324.82 232.21 321.10 230.96 317.51 229.40 C 315.84 228.85 314.18 228.29 312.52 227.75 C 307.87 225.67 303.34 223.23 298.42 221.78 C 296.25 220.38 293.75 219.64 291.57 218.27 C 289.24 217.27 286.88 216.37 284.60 215.28 C 278.76 212.96 273.29 209.90 267.53 207.41 C 267.01 232.92 267.44 258.47 267.30 283.99 C 267.39 318.66 267.11 353.33 267.44 387.99 C 273.15 385.57 278.94 383.18 284.38 380.25 C 286.04 379.48 287.69 378.63 289.55 378.52 C 289.88 378.18 290.54 377.50 290.87 377.16 C 293.22 376.55 295.57 375.76 297.59 374.36 C 299.76 373.04 302.45 372.85 304.49 371.27 C 306.24 370.85 307.92 370.18 309.62 369.58 C 309.98 369.24 310.70 368.57 311.06 368.24 C 313.64 367.56 316.42 367.01 318.53 365.26 C 321.25 364.46 324.38 364.33 326.59 362.36 C 329.64 361.45 332.92 361.06 335.65 359.32 C 338.93 358.22 342.58 358.14 345.57 356.28 C 347.34 356.09 349.10 355.74 350.70 354.93 C 352.83 354.94 355.04 354.76 356.61 353.14 C 357.26 353.15 358.58 353.17 359.23 353.18 C 362.00 351.04 365.95 352.73 368.57 350.26 C 370.98 350.18 373.38 349.77 375.65 348.92 C 376.91 348.88 378.17 348.84 379.43 348.80 C 380.82 348.03 382.30 347.24 383.94 347.24 C 388.14 347.14 392.16 345.66 396.39 345.74 C 398.13 344.89 400.21 345.15 401.87 344.08 C 402.58 344.89 403.29 345.70 404.01 346.53 C 401.22 350.34 403.31 355.37 401.49 359.48 C 400.84 361.41 401.02 363.48 400.92 365.49 C 398.49 367.61 399.94 370.98 398.90 373.63 C 398.01 375.46 397.94 377.47 397.86 379.47 C 395.59 382.02 397.00 385.64 395.53 388.51 C 395.13 389.76 394.98 391.08 394.80 392.39 C 393.17 395.50 392.40 399.05 391.80 402.50 C 390.49 405.72 389.26 409.03 388.77 412.50 C 387.37 414.62 387.50 417.33 386.16 419.49 C 386.09 420.00 385.95 421.02 385.88 421.53 C 384.81 422.48 384.41 423.80 384.21 425.17 C 382.94 427.40 382.28 429.90 381.52 432.34 C 379.60 437.42 376.86 442.27 375.38 447.48 C 372.07 453.28 370.03 459.71 366.81 465.55 C 365.58 468.95 364.01 472.27 362.25 475.43 C 361.48 477.22 360.68 479.03 360.52 481.01 C 420.55 480.97 480.58 481.04 540.62 480.97 C 539.99 479.38 539.33 477.81 538.72 476.23 C 535.93 470.84 533.54 465.20 531.23 459.60 C 528.70 454.71 526.24 449.77 524.27 444.63 C 522.81 439.76 519.72 435.55 518.74 430.54 C 516.98 428.19 516.83 425.16 515.74 422.52 C 514.56 420.68 513.89 418.59 513.43 416.48 C 511.90 412.59 510.73 408.58 509.71 404.53 C 508.19 401.90 508.27 398.76 507.22 395.97 C 505.60 391.28 504.31 386.44 503.81 381.50 C 501.88 378.85 502.73 375.38 501.44 372.50 C 500.97 370.85 500.98 369.13 500.87 367.44 C 499.20 364.92 499.29 361.85 499.20 358.96 C 498.08 355.93 497.95 352.69 497.88 349.50 C 496.85 348.29 497.04 346.69 496.88 345.25 C 497.72 344.93 498.56 344.62 499.41 344.31 C 501.04 344.99 502.88 344.97 504.50 345.73 C 507.30 345.72 510.07 346.15 512.76 346.98 C 515.74 347.30 518.95 346.88 521.54 348.76 C 523.99 348.77 526.47 349.03 528.69 350.15 C 529.38 350.16 530.75 350.17 531.44 350.18 C 534.38 352.85 538.70 350.87 541.79 353.18 C 542.44 353.17 543.73 353.15 544.38 353.14 C 547.57 355.40 551.76 355.70 555.54 356.19 C 556.01 356.58 556.94 357.37 557.41 357.76 C 560.29 357.42 562.72 359.38 565.59 359.22 C 565.90 359.59 566.54 360.33 566.85 360.69 C 569.15 360.68 571.23 361.74 573.42 362.33 C 575.38 363.37 577.56 363.90 579.54 364.92 C 580.06 364.96 581.08 365.02 581.60 365.06 C 582.06 365.50 582.99 366.37 583.46 366.80 C 584.11 366.79 585.43 366.77 586.08 366.76 C 591.69 369.59 597.42 372.44 603.44 374.25 C 605.19 375.67 607.31 376.49 609.40 377.27 C 612.01 378.90 615.16 379.48 617.57 381.43 C 619.37 381.69 620.99 382.49 622.62 383.27 C 623.71 384.12 624.94 384.77 626.38 384.74 C 628.52 385.84 630.61 387.03 632.79 388.07 C 633.16 383.73 632.95 379.38 633.00 375.04 C 633.00 319.20 633.01 263.37 632.99 207.54 C 629.59 208.42 626.89 210.82 623.55 211.85 C 618.76 213.83 614.28 216.44 609.39 218.20 C 604.96 220.67 600.15 222.44 595.40 224.24 C 587.94 227.86 580.10 230.49 572.49 233.74 C 569.43 234.58 566.28 235.26 563.46 236.77 C 561.17 237.28 558.90 237.85 556.62 238.34 C 555.46 238.97 554.30 239.68 552.98 239.86 C 546.40 240.90 540.31 244.03 533.58 244.29 C 532.17 245.10 530.69 245.84 529.03 245.90 C 519.87 247.29 510.92 250.04 501.62 250.21 C 500.18 251.33 497.95 251.48 497.01 249.66 C 496.73 247.71 497.95 245.98 497.94 244.07 C 497.84 239.80 500.01 235.83 499.30 231.51 C 499.83 230.52 500.38 229.54 500.93 228.57 C 500.94 221.23 503.72 214.31 505.05 207.17 C 506.92 202.01 507.35 196.34 509.74 191.41 C 510.04 189.07 510.75 186.83 511.39 184.57 C 512.75 181.71 513.61 178.65 514.36 175.58 C 516.18 172.04 517.14 168.16 518.65 164.49 C 522.19 155.87 525.64 147.23 529.91 138.94 C 531.09 136.11 531.80 133.05 533.57 130.48 C 535.06 126.76 537.23 123.30 538.18 119.38 C 539.03 118.08 539.89 116.79 540.83 115.54 C 539.58 115.11 538.30 114.92 537.00 114.98 C 478.12 115.06 419.24 114.93 360.36 115.04 Z" />
<path fill="#ffffff" opacity="1.00" d=" M 376.84 125.61 C 380.48 124.69 384.24 124.96 387.95 124.94 C 431.66 124.95 475.36 124.95 519.06 124.94 C 520.88 124.88 522.92 125.18 524.05 126.79 C 520.65 132.77 518.31 139.29 515.26 145.41 C 514.51 147.10 513.80 148.83 513.43 150.65 C 513.12 151.04 512.50 151.80 512.19 152.18 C 511.98 153.50 511.58 154.76 510.90 155.90 C 510.62 157.22 510.21 158.50 509.25 159.49 C 508.13 163.58 506.75 167.69 504.70 171.40 C 504.66 172.46 504.64 173.53 504.64 174.60 C 504.23 174.96 503.39 175.69 502.97 176.05 C 502.98 176.77 503.00 178.19 503.02 178.91 C 502.67 179.30 501.98 180.09 501.63 180.48 C 502.12 183.09 500.37 185.16 499.75 187.55 C 498.57 190.42 498.74 193.68 497.25 196.45 C 496.26 199.82 496.22 203.62 494.18 206.58 C 493.74 213.04 491.29 219.08 490.59 225.48 C 489.55 227.66 489.71 230.09 489.68 232.44 C 487.17 236.31 488.62 241.04 487.22 245.23 C 486.18 248.79 487.42 252.63 486.02 256.12 C 485.13 258.33 484.95 260.68 485.03 263.05 C 488.22 263.44 491.16 262.20 494.20 261.52 C 497.70 261.30 501.27 261.60 504.67 260.50 C 507.23 259.59 510.14 260.63 512.55 259.26 C 516.10 257.93 520.04 259.07 523.51 257.56 C 525.89 256.97 528.44 256.89 530.57 255.51 C 534.39 255.99 537.66 253.48 541.49 253.87 C 545.32 251.84 549.90 251.59 553.93 249.89 C 556.89 249.40 559.89 248.91 562.48 247.25 C 564.82 246.66 567.26 246.32 569.46 245.23 C 571.98 245.03 573.96 243.08 576.59 243.47 C 576.98 243.15 577.77 242.52 578.17 242.20 C 580.98 241.46 583.73 240.47 586.39 239.28 C 591.05 237.22 596.07 235.88 600.46 233.25 C 606.38 231.47 611.87 228.47 617.54 226.00 C 618.79 225.41 619.93 224.65 621.13 223.96 C 622.89 224.94 623.04 227.15 623.11 228.95 C 623.10 271.30 623.11 313.65 623.10 356.00 C 623.09 359.45 623.27 362.91 622.81 366.35 C 622.71 367.92 624.10 370.45 621.87 370.99 C 618.02 371.18 615.18 367.92 611.57 367.08 C 604.42 363.43 596.88 360.67 589.48 357.60 C 583.84 355.45 578.32 353.03 572.54 351.29 C 570.22 350.57 568.04 349.36 565.56 349.36 C 563.25 348.35 560.83 347.64 558.52 346.67 C 557.10 346.55 555.74 346.17 554.43 345.64 C 552.82 345.08 551.12 344.87 549.49 344.41 C 543.04 342.19 536.35 340.87 529.65 339.70 C 525.71 338.08 521.43 337.72 517.25 337.17 C 514.12 336.86 511.18 335.61 508.05 335.32 C 502.84 335.36 497.83 333.52 492.59 333.86 C 490.67 332.44 488.09 333.32 485.99 332.37 C 483.19 335.94 487.06 340.05 486.74 343.94 C 486.25 349.20 488.53 354.18 488.13 359.45 C 489.29 361.03 489.83 362.97 489.71 364.93 C 489.45 368.63 491.67 371.93 491.08 375.66 C 491.61 376.61 492.14 377.56 492.66 378.53 C 492.44 381.96 494.48 385.01 494.14 388.47 C 495.54 390.01 495.64 392.09 495.89 394.05 C 496.57 395.82 497.13 397.63 497.16 399.56 C 497.65 400.51 498.14 401.48 498.60 402.47 C 499.10 405.90 499.75 409.46 501.44 412.53 C 501.85 414.74 503.06 416.73 503.15 419.02 C 504.82 421.61 504.98 424.79 506.26 427.56 C 507.34 429.43 507.94 431.52 508.84 433.48 C 508.92 433.98 509.08 434.98 509.16 435.48 C 510.79 438.37 511.29 441.80 513.22 444.55 C 514.71 448.64 516.39 452.67 518.31 456.58 C 518.89 457.80 519.36 459.09 519.80 460.39 C 521.38 463.23 522.59 466.26 524.06 469.16 C 523.29 470.79 521.46 470.34 520.02 470.42 C 472.27 470.36 424.53 470.43 376.78 470.39 C 377.19 467.08 378.64 464.04 380.34 461.22 C 381.57 459.06 381.76 456.40 383.50 454.53 C 384.10 452.85 384.68 451.16 385.27 449.48 C 386.43 447.23 387.36 444.88 388.30 442.53 C 391.41 436.78 392.46 430.14 395.60 424.40 C 396.30 421.30 396.99 418.15 398.59 415.37 C 399.30 410.60 401.63 406.27 402.51 401.53 C 402.76 400.50 403.00 399.48 403.23 398.46 C 405.39 394.78 404.89 390.20 406.78 386.41 C 406.98 385.05 407.16 383.69 407.46 382.36 C 407.78 380.78 408.14 379.22 408.45 377.64 C 410.58 370.61 410.99 363.23 412.84 356.14 C 413.14 350.94 413.98 345.79 414.51 340.62 C 415.07 338.27 414.68 335.69 416.04 333.58 C 415.66 333.25 414.91 332.61 414.53 332.29 C 408.19 333.90 401.64 334.15 395.20 335.14 C 390.91 335.07 386.98 337.23 382.69 337.00 L 381.65 337.51 C 377.85 337.80 374.07 338.64 370.42 339.69 C 369.42 339.92 368.41 340.17 367.41 340.41 C 364.33 340.61 361.42 341.68 358.40 342.21 C 355.86 343.22 353.15 343.66 350.52 344.35 C 349.19 344.81 347.82 345.18 346.53 345.74 C 343.48 346.52 340.43 347.27 337.44 348.24 C 334.49 349.40 331.42 350.19 328.45 351.28 C 326.20 352.27 323.68 352.51 321.52 353.71 C 319.53 354.46 317.60 355.54 315.43 355.53 C 315.05 355.85 314.29 356.49 313.91 356.81 C 311.03 357.43 308.28 358.53 305.61 359.73 C 303.94 360.49 302.24 361.17 300.47 361.66 C 298.47 363.15 296.05 363.89 293.72 364.72 C 291.34 366.69 288.00 366.80 285.56 368.71 C 283.15 369.92 280.67 371.14 277.90 371.16 C 277.88 324.09 277.92 277.02 277.88 229.96 C 278.03 227.85 277.20 225.20 279.30 223.83 C 281.70 226.09 285.22 226.29 287.77 228.29 C 291.80 229.76 295.51 231.96 299.62 233.26 C 302.57 234.73 305.81 235.58 308.69 237.20 C 309.98 237.68 311.27 238.19 312.49 238.85 C 313.00 238.92 314.00 239.06 314.51 239.13 C 320.51 242.28 327.29 243.74 333.56 246.37 C 336.04 246.35 338.21 247.57 340.52 248.30 C 343.06 249.52 346.03 249.30 348.47 250.75 C 349.75 251.01 351.05 251.25 352.27 251.75 C 354.58 252.88 357.44 252.02 359.49 253.84 C 365.53 254.83 371.47 256.21 377.48 257.57 C 380.67 259.14 384.41 257.69 387.61 259.28 C 390.87 260.82 394.81 259.31 398.10 261.06 C 401.86 261.70 405.75 260.99 409.42 262.25 C 411.07 263.08 414.64 264.06 415.35 261.81 C 414.46 254.20 413.45 246.60 412.68 238.98 C 411.21 233.60 410.61 228.03 409.78 222.53 C 408.90 220.95 408.94 219.09 408.48 217.38 C 408.12 215.80 407.75 214.23 407.49 212.65 C 407.23 211.62 406.97 210.59 406.73 209.56 C 405.28 205.33 404.97 200.74 403.26 196.56 C 402.30 191.06 399.62 186.08 398.61 180.60 C 398.20 179.53 397.75 178.48 397.26 177.44 C 396.83 175.44 396.21 173.48 395.58 171.53 C 393.98 169.11 393.64 166.17 392.63 163.51 C 390.74 160.35 390.23 156.57 388.26 153.46 C 385.52 144.83 381.05 136.87 377.60 128.52 C 377.32 127.55 377.07 126.58 376.84 125.61 M 393.89 136.84 C 395.15 140.02 396.28 143.27 397.75 146.38 C 398.50 147.99 399.26 149.61 399.61 151.37 C 401.93 153.96 401.70 157.76 403.75 160.48 C 404.43 163.26 405.19 166.11 406.81 168.52 C 407.15 171.98 408.55 175.23 409.70 178.49 C 410.67 181.50 411.23 184.69 412.75 187.50 C 413.69 191.18 414.05 195.09 415.73 198.54 C 417.09 205.87 419.33 213.03 420.35 220.42 C 420.80 221.81 421.19 223.23 421.75 224.59 C 422.50 230.62 422.89 236.82 424.74 242.63 C 424.88 249.24 426.50 255.73 426.24 262.36 C 427.66 265.86 426.69 269.88 428.04 273.48 C 427.31 274.20 426.57 274.91 425.84 275.63 C 424.43 275.21 422.96 274.98 421.51 274.77 C 416.98 272.74 411.61 275.09 406.90 273.44 C 403.07 271.85 398.81 273.44 394.96 271.98 C 392.55 270.95 389.95 270.89 387.37 270.92 C 384.60 269.59 381.54 269.58 378.54 269.64 C 373.18 267.00 366.66 268.08 361.46 265.11 C 359.28 264.87 357.11 264.57 355.04 263.86 C 351.06 263.09 347.25 261.70 343.27 260.89 C 341.52 260.76 339.85 260.26 338.44 259.23 C 334.99 258.79 331.61 257.76 328.47 256.27 C 326.50 255.74 324.55 255.13 322.58 254.62 C 320.46 253.62 318.22 252.93 316.04 252.10 C 314.44 251.70 312.87 251.17 311.48 250.28 C 304.99 248.21 298.89 245.10 292.54 242.73 C 291.85 242.35 290.49 241.59 289.81 241.21 C 289.81 278.86 289.83 316.50 289.79 354.14 C 292.65 352.71 296.10 352.49 298.53 350.25 C 300.86 349.58 303.33 349.02 305.23 347.40 C 308.13 346.76 310.93 345.69 313.59 344.35 C 314.89 344.22 316.09 343.77 317.13 342.98 C 317.80 342.95 319.14 342.90 319.81 342.87 C 320.22 342.48 321.03 341.69 321.44 341.29 C 324.62 340.79 327.77 339.90 330.63 338.40 C 333.70 337.69 336.79 336.90 339.58 335.41 C 342.26 335.13 344.86 334.37 347.47 333.71 C 348.82 333.17 350.23 332.81 351.64 332.42 C 352.95 332.22 354.24 331.85 355.51 331.41 C 356.80 331.12 358.12 330.96 359.44 330.77 C 360.78 330.19 362.20 329.81 363.60 329.36 C 364.21 329.32 365.44 329.25 366.05 329.22 C 368.12 328.42 370.29 327.93 372.51 327.81 C 374.86 326.66 377.49 326.34 380.07 326.21 C 385.26 325.29 390.50 324.66 395.64 323.45 C 398.94 323.43 402.21 323.01 405.47 322.48 C 408.69 321.12 412.65 323.19 415.54 321.08 C 419.71 321.80 424.04 319.42 428.00 321.11 C 427.92 321.68 427.77 322.82 427.70 323.39 C 426.84 324.81 427.03 326.47 426.98 328.06 C 427.06 330.74 425.90 333.29 426.16 335.99 C 425.62 347.58 423.26 358.95 421.72 370.43 C 421.18 371.78 420.79 373.19 420.34 374.58 C 420.30 378.27 418.67 381.72 418.78 385.43 C 416.57 388.99 416.78 393.43 415.75 397.41 C 415.11 398.51 414.48 399.64 414.30 400.92 C 413.19 406.57 411.22 411.98 409.73 417.53 C 408.86 418.92 408.27 420.45 408.16 422.11 C 407.74 423.60 407.28 425.09 406.77 426.57 C 405.28 429.04 404.56 431.86 403.78 434.61 C 402.92 436.03 402.45 437.62 402.18 439.25 C 401.49 440.43 401.02 441.70 400.73 443.04 C 399.31 444.99 398.28 447.22 397.76 449.58 C 396.47 452.40 395.50 455.37 393.88 458.04 C 401.26 457.56 408.66 457.94 416.05 457.82 C 446.10 457.82 476.16 457.82 506.21 457.82 C 505.52 455.65 504.65 453.55 503.71 451.49 C 501.51 446.55 499.10 441.71 497.78 436.44 C 496.09 434.47 496.39 431.70 495.18 429.52 C 493.53 426.36 492.74 422.88 491.73 419.50 C 490.33 416.38 489.40 413.02 488.79 409.66 C 487.01 406.56 486.79 402.85 485.75 399.46 C 484.46 395.24 483.02 390.95 482.87 386.50 C 480.37 384.02 482.52 380.01 480.08 377.51 C 480.01 375.85 479.98 374.19 479.91 372.53 C 477.16 369.34 479.75 364.72 477.08 361.49 C 477.71 356.14 474.79 351.28 475.50 345.94 C 475.86 342.80 473.60 340.10 473.98 336.96 C 473.74 333.45 474.63 329.77 473.40 326.39 C 473.10 325.02 472.80 323.66 472.49 322.31 C 472.97 321.78 473.93 320.72 474.41 320.19 C 477.73 320.75 481.08 321.14 484.46 321.12 C 487.80 323.20 492.06 321.04 495.65 322.53 C 496.25 322.61 497.45 322.79 498.06 322.87 C 500.44 323.49 502.92 323.32 505.36 323.44 C 510.18 324.73 515.19 324.99 520.03 326.20 C 521.14 326.28 522.26 326.35 523.40 326.43 C 524.42 326.73 525.46 327.02 526.51 327.30 C 530.06 328.28 533.76 329.01 537.45 329.41 C 541.28 331.00 545.43 331.49 549.45 332.44 C 553.95 334.49 559.15 334.45 563.53 336.77 C 565.55 337.18 567.57 337.68 569.53 338.36 C 572.45 339.49 575.42 340.47 578.41 341.39 C 581.91 343.39 586.28 343.30 589.53 345.75 C 592.18 346.80 595.13 347.06 597.55 348.66 C 599.89 349.60 602.24 350.52 604.48 351.70 C 606.74 352.47 609.02 353.19 611.21 354.15 C 611.21 316.54 611.19 278.92 611.21 241.31 C 608.60 242.21 606.19 243.62 603.53 244.35 C 600.60 246.06 597.27 246.92 594.37 248.68 C 592.37 249.04 590.43 249.66 588.52 250.31 C 586.09 251.84 583.33 252.83 580.49 253.21 C 580.02 253.58 579.06 254.33 578.59 254.70 C 576.18 254.86 573.89 255.67 571.58 256.30 C 568.50 257.96 565.03 258.77 561.60 259.32 C 558.89 261.65 554.78 261.03 551.51 262.25 C 547.88 264.26 543.55 264.57 539.51 265.19 C 537.52 266.63 535.01 266.69 532.66 266.81 C 530.52 268.22 527.93 268.00 525.50 268.13 C 521.93 270.57 517.36 268.92 513.64 270.93 C 511.58 271.00 509.54 270.99 507.50 271.08 C 503.89 273.83 499.13 271.94 495.07 273.08 C 490.09 275.22 484.25 272.64 479.50 274.87 C 477.10 274.99 474.30 275.90 472.39 273.90 C 472.93 272.19 473.18 270.40 473.36 268.62 C 474.79 264.43 473.59 259.84 474.06 255.48 C 476.61 251.42 474.59 246.46 476.28 242.16 C 477.56 239.41 476.42 236.26 477.57 233.49 C 479.06 229.97 477.84 225.89 479.90 222.52 C 479.91 220.06 479.89 217.52 481.35 215.41 C 481.40 213.40 481.54 211.37 482.32 209.50 C 483.19 207.97 482.96 206.18 483.14 204.50 C 484.71 202.06 484.19 198.94 485.81 196.51 C 485.68 193.83 487.48 191.65 487.48 189.00 C 487.53 187.72 488.10 186.57 488.77 185.50 C 489.29 182.37 490.32 179.31 491.79 176.50 C 491.92 174.90 492.19 173.31 493.29 172.07 C 493.31 171.45 493.35 170.20 493.37 169.58 C 495.26 166.41 495.85 162.67 497.75 159.52 C 498.34 156.69 499.30 153.94 500.61 151.35 C 501.65 149.08 502.01 146.43 503.78 144.56 C 504.34 142.87 504.89 141.18 505.37 139.47 C 506.02 138.62 506.68 137.76 507.34 136.90 C 469.52 136.78 431.70 136.85 393.89 136.84 Z" />
</g>
<g id="#010101ff">
<path fill="#010101" opacity="1.00" d=" M 360.36 115.04 C 419.24 114.93 478.12 115.06 537.00 114.98 C 538.30 114.92 539.58 115.11 540.83 115.54 C 539.89 116.79 539.03 118.08 538.18 119.38 C 537.23 123.30 535.06 126.76 533.57 130.48 C 531.80 133.05 531.09 136.11 529.91 138.94 C 525.64 147.23 522.19 155.87 518.65 164.49 C 517.14 168.16 516.18 172.04 514.36 175.58 C 513.61 178.65 512.75 181.71 511.39 184.57 C 510.75 186.83 510.04 189.07 509.74 191.41 C 507.35 196.34 506.92 202.01 505.05 207.17 C 503.72 214.31 500.94 221.23 500.93 228.57 C 500.38 229.54 499.83 230.52 499.30 231.51 C 500.01 235.83 497.84 239.80 497.94 244.07 C 497.95 245.98 496.73 247.71 497.01 249.66 C 497.95 251.48 500.18 251.33 501.62 250.21 C 510.92 250.04 519.87 247.29 529.03 245.90 C 530.69 245.84 532.17 245.10 533.58 244.29 C 540.31 244.03 546.40 240.90 552.98 239.86 C 554.30 239.68 555.46 238.97 556.62 238.34 C 558.90 237.85 561.17 237.28 563.46 236.77 C 566.28 235.26 569.43 234.58 572.49 233.74 C 580.10 230.49 587.94 227.86 595.40 224.24 C 600.15 222.44 604.96 220.67 609.39 218.20 C 614.28 216.44 618.76 213.83 623.55 211.85 C 626.89 210.82 629.59 208.42 632.99 207.54 C 633.01 263.37 633.00 319.20 633.00 375.04 C 632.95 379.38 633.16 383.73 632.79 388.07 C 630.61 387.03 628.52 385.84 626.38 384.74 C 624.94 384.77 623.71 384.12 622.62 383.27 C 620.99 382.49 619.37 381.69 617.57 381.43 C 615.16 379.48 612.01 378.90 609.40 377.27 C 607.31 376.49 605.19 375.67 603.44 374.25 C 597.42 372.44 591.69 369.59 586.08 366.76 C 585.43 366.77 584.11 366.79 583.46 366.80 C 582.99 366.37 582.06 365.50 581.60 365.06 C 581.08 365.02 580.06 364.96 579.54 364.92 C 577.56 363.90 575.38 363.37 573.42 362.33 C 571.23 361.74 569.15 360.68 566.85 360.69 C 566.54 360.33 565.90 359.59 565.59 359.22 C 562.72 359.38 560.29 357.42 557.41 357.76 C 556.94 357.37 556.01 356.58 555.54 356.19 C 551.76 355.70 547.57 355.40 544.38 353.14 C 543.73 353.15 542.44 353.17 541.79 353.18 C 538.70 350.87 534.38 352.85 531.44 350.18 C 530.75 350.17 529.38 350.16 528.69 350.15 C 526.47 349.03 523.99 348.77 521.54 348.76 C 518.95 346.88 515.74 347.30 512.76 346.98 C 510.07 346.15 507.30 345.72 504.50 345.73 C 502.88 344.97 501.04 344.99 499.41 344.31 C 498.56 344.62 497.72 344.93 496.88 345.25 C 497.04 346.69 496.85 348.29 497.88 349.50 C 497.95 352.69 498.08 355.93 499.20 358.96 C 499.29 361.85 499.20 364.92 500.87 367.44 C 500.98 369.13 500.97 370.85 501.44 372.50 C 502.73 375.38 501.88 378.85 503.81 381.50 C 504.31 386.44 505.60 391.28 507.22 395.97 C 508.27 398.76 508.19 401.90 509.71 404.53 C 510.73 408.58 511.90 412.59 513.43 416.48 C 513.89 418.59 514.56 420.68 515.74 422.52 C 516.83 425.16 516.98 428.19 518.74 430.54 C 519.72 435.55 522.81 439.76 524.27 444.63 C 526.24 449.77 528.70 454.71 531.23 459.60 C 533.54 465.20 535.93 470.84 538.72 476.23 C 539.33 477.81 539.99 479.38 540.62 480.97 C 480.58 481.04 420.55 480.97 360.52 481.01 C 360.68 479.03 361.48 477.22 362.25 475.43 C 364.01 472.27 365.58 468.95 366.81 465.55 C 370.03 459.71 372.07 453.28 375.38 447.48 C 376.86 442.27 379.60 437.42 381.52 432.34 C 382.28 429.90 382.94 427.40 384.21 425.17 C 384.41 423.80 384.81 422.48 385.88 421.53 C 385.95 421.02 386.09 420.00 386.16 419.49 C 387.50 417.33 387.37 414.62 388.77 412.50 C 389.26 409.03 390.49 405.72 391.80 402.50 C 392.40 399.05 393.17 395.50 394.80 392.39 C 394.98 391.08 395.13 389.76 395.53 388.51 C 397.00 385.64 395.59 382.02 397.86 379.47 C 397.94 377.47 398.01 375.46 398.90 373.63 C 399.94 370.98 398.49 367.61 400.92 365.49 C 401.02 363.48 400.84 361.41 401.49 359.48 C 403.31 355.37 401.22 350.34 404.01 346.53 C 403.29 345.70 402.58 344.89 401.87 344.08 C 400.21 345.15 398.13 344.89 396.39 345.74 C 392.16 345.66 388.14 347.14 383.94 347.24 C 382.30 347.24 380.82 348.03 379.43 348.80 C 378.17 348.84 376.91 348.88 375.65 348.92 C 373.38 349.77 370.98 350.18 368.57 350.26 C 365.95 352.73 362.00 351.04 359.23 353.18 C 358.58 353.17 357.26 353.15 356.61 353.14 C 355.04 354.76 352.83 354.94 350.70 354.93 C 349.10 355.74 347.34 356.09 345.57 356.28 C 342.58 358.14 338.93 358.22 335.65 359.32 C 332.92 361.06 329.64 361.45 326.59 362.36 C 324.38 364.33 321.25 364.46 318.53 365.26 C 316.42 367.01 313.64 367.56 311.06 368.24 C 310.70 368.57 309.98 369.24 309.62 369.58 C 307.92 370.18 306.24 370.85 304.49 371.27 C 302.45 372.85 299.76 373.04 297.59 374.36 C 295.57 375.76 293.22 376.55 290.87 377.16 C 290.54 377.50 289.88 378.18 289.55 378.52 C 287.69 378.63 286.04 379.48 284.38 380.25 C 278.94 383.18 273.15 385.57 267.44 387.99 C 267.11 353.33 267.39 318.66 267.30 283.99 C 267.44 258.47 267.01 232.92 267.53 207.41 C 273.29 209.90 278.76 212.96 284.60 215.28 C 286.88 216.37 289.24 217.27 291.57 218.27 C 293.75 219.64 296.25 220.38 298.42 221.78 C 303.34 223.23 307.87 225.67 312.52 227.75 C 314.18 228.29 315.84 228.85 317.51 229.40 C 321.10 230.96 324.82 232.21 328.44 233.72 C 328.95 233.90 329.98 234.27 330.50 234.45 C 332.86 234.98 335.19 235.74 337.41 236.73 C 339.36 237.44 341.38 237.94 343.42 238.35 C 347.89 240.64 353.24 240.24 357.59 242.73 C 365.23 243.75 372.49 246.55 380.18 247.29 C 386.89 249.49 394.07 249.36 400.95 250.92 C 402.46 251.36 403.17 249.44 404.16 248.64 C 402.89 247.58 402.93 245.84 402.40 244.42 C 402.33 241.76 402.58 239.01 401.48 236.52 C 400.57 234.26 401.66 231.55 400.20 229.52 C 399.62 224.81 398.08 220.30 397.87 215.56 C 395.68 213.36 396.85 210.07 395.53 207.49 C 395.13 206.24 394.97 204.93 394.80 203.63 C 393.00 200.25 392.39 196.29 391.81 192.53 C 390.35 190.41 390.52 187.69 389.17 185.53 C 389.09 185.02 388.93 184.01 388.85 183.50 C 387.06 181.50 387.99 178.49 386.13 176.54 C 386.06 176.03 385.92 175.02 385.84 174.51 C 384.70 172.62 384.20 170.44 383.16 168.51 C 383.09 168.00 382.94 166.98 382.87 166.47 C 381.93 165.35 381.26 164.06 381.47 162.56 C 381.15 162.17 380.51 161.38 380.20 160.99 C 378.89 155.96 376.35 151.32 374.25 146.60 C 372.44 141.09 369.22 136.12 367.24 130.64 C 366.74 129.22 366.16 127.82 365.29 126.59 C 363.57 122.77 361.82 118.96 360.36 115.04 M 376.84 125.61 C 377.07 126.58 377.32 127.55 377.60 128.52 C 381.05 136.87 385.52 144.83 388.26 153.46 C 390.23 156.57 390.74 160.35 392.63 163.51 C 393.64 166.17 393.98 169.11 395.58 171.53 C 396.21 173.48 396.83 175.44 397.26 177.44 C 397.75 178.48 398.20 179.53 398.61 180.60 C 399.62 186.08 402.30 191.06 403.26 196.56 C 404.97 200.74 405.28 205.33 406.73 209.56 C 406.97 210.59 407.23 211.62 407.49 212.65 C 407.75 214.23 408.12 215.80 408.48 217.38 C 408.94 219.09 408.90 220.95 409.78 222.53 C 410.61 228.03 411.21 233.60 412.68 238.98 C 413.45 246.60 414.46 254.20 415.35 261.81 C 414.64 264.06 411.07 263.08 409.42 262.25 C 405.75 260.99 401.86 261.70 398.10 261.06 C 394.81 259.31 390.87 260.82 387.61 259.28 C 384.41 257.69 380.67 259.14 377.48 257.57 C 371.47 256.21 365.53 254.83 359.49 253.84 C 357.44 252.02 354.58 252.88 352.27 251.75 C 351.05 251.25 349.75 251.01 348.47 250.75 C 346.03 249.30 343.06 249.52 340.52 248.30 C 338.21 247.57 336.04 246.35 333.56 246.37 C 327.29 243.74 320.51 242.28 314.51 239.13 C 314.00 239.06 313.00 238.92 312.49 238.85 C 311.27 238.19 309.98 237.68 308.69 237.20 C 305.81 235.58 302.57 234.73 299.62 233.26 C 295.51 231.96 291.80 229.76 287.77 228.29 C 285.22 226.29 281.70 226.09 279.30 223.83 C 277.20 225.20 278.03 227.85 277.88 229.96 C 277.92 277.02 277.88 324.09 277.90 371.16 C 280.67 371.14 283.15 369.92 285.56 368.71 C 288.00 366.80 291.34 366.69 293.72 364.72 C 296.05 363.89 298.47 363.15 300.47 361.66 C 302.24 361.17 303.94 360.49 305.61 359.73 C 308.28 358.53 311.03 357.43 313.91 356.81 C 314.29 356.49 315.05 355.85 315.43 355.53 C 317.60 355.54 319.53 354.46 321.52 353.71 C 323.68 352.51 326.20 352.27 328.45 351.28 C 331.42 350.19 334.49 349.40 337.44 348.24 C 340.43 347.27 343.48 346.52 346.53 345.74 C 347.82 345.18 349.19 344.81 350.52 344.35 C 353.15 343.66 355.86 343.22 358.40 342.21 C 361.42 341.68 364.33 340.61 367.41 340.41 C 368.41 340.17 369.42 339.92 370.42 339.69 C 374.07 338.64 377.85 337.80 381.65 337.51 L 382.69 337.00 C 386.98 337.23 390.91 335.07 395.20 335.14 C 401.64 334.15 408.19 333.90 414.53 332.29 C 414.91 332.61 415.66 333.25 416.04 333.58 C 414.68 335.69 415.07 338.27 414.51 340.62 C 413.98 345.79 413.14 350.94 412.84 356.14 C 410.99 363.23 410.58 370.61 408.45 377.64 C 408.14 379.22 407.78 380.78 407.46 382.36 C 407.16 383.69 406.98 385.05 406.78 386.41 C 404.89 390.20 405.39 394.78 403.23 398.46 C 403.00 399.48 402.76 400.50 402.51 401.53 C 401.63 406.27 399.30 410.60 398.59 415.37 C 396.99 418.15 396.30 421.30 395.60 424.40 C 392.46 430.14 391.41 436.78 388.30 442.53 C 387.36 444.88 386.43 447.23 385.27 449.48 C 384.68 451.16 384.10 452.85 383.50 454.53 C 381.76 456.40 381.57 459.06 380.34 461.22 C 378.64 464.04 377.19 467.08 376.78 470.39 C 424.53 470.43 472.27 470.36 520.02 470.42 C 521.46 470.34 523.29 470.79 524.06 469.16 C 522.59 466.26 521.38 463.23 519.80 460.39 C 519.36 459.09 518.89 457.80 518.31 456.58 C 516.39 452.67 514.71 448.64 513.22 444.55 C 511.29 441.80 510.79 438.37 509.16 435.48 C 509.08 434.98 508.92 433.98 508.84 433.48 C 507.94 431.52 507.34 429.43 506.26 427.56 C 504.98 424.79 504.82 421.61 503.15 419.02 C 503.06 416.73 501.85 414.74 501.44 412.53 C 499.75 409.46 499.10 405.90 498.60 402.47 C 498.14 401.48 497.65 400.51 497.16 399.56 C 497.13 397.63 496.57 395.82 495.89 394.05 C 495.64 392.09 495.54 390.01 494.14 388.47 C 494.48 385.01 492.44 381.96 492.66 378.53 C 492.14 377.56 491.61 376.61 491.08 375.66 C 491.67 371.93 489.45 368.63 489.71 364.93 C 489.83 362.97 489.29 361.03 488.13 359.45 C 488.53 354.18 486.25 349.20 486.74 343.94 C 487.06 340.05 483.19 335.94 485.99 332.37 C 488.09 333.32 490.67 332.44 492.59 333.86 C 497.83 333.52 502.84 335.36 508.05 335.32 C 511.18 335.61 514.12 336.86 517.25 337.17 C 521.43 337.72 525.71 338.08 529.65 339.70 C 536.35 340.87 543.04 342.19 549.49 344.41 C 551.12 344.87 552.82 345.08 554.43 345.64 C 555.74 346.17 557.10 346.55 558.52 346.67 C 560.83 347.64 563.25 348.35 565.56 349.36 C 568.04 349.36 570.22 350.57 572.54 351.29 C 578.32 353.03 583.84 355.45 589.48 357.60 C 596.88 360.67 604.42 363.43 611.57 367.08 C 615.18 367.92 618.02 371.18 621.87 370.99 C 624.10 370.45 622.71 367.92 622.81 366.35 C 623.27 362.91 623.09 359.45 623.10 356.00 C 623.11 313.65 623.10 271.30 623.11 228.95 C 623.04 227.15 622.89 224.94 621.13 223.96 C 619.93 224.65 618.79 225.41 617.54 226.00 C 611.87 228.47 606.38 231.47 600.46 233.25 C 596.07 235.88 591.05 237.22 586.39 239.28 C 583.73 240.47 580.98 241.46 578.17 242.20 C 577.77 242.52 576.98 243.15 576.59 243.47 C 573.96 243.08 571.98 245.03 569.46 245.23 C 567.26 246.32 564.82 246.66 562.48 247.25 C 559.89 248.91 556.89 249.40 553.93 249.89 C 549.90 251.59 545.32 251.84 541.49 253.87 C 537.66 253.48 534.39 255.99 530.57 255.51 C 528.44 256.89 525.89 256.97 523.51 257.56 C 520.04 259.07 516.10 257.93 512.55 259.26 C 510.14 260.63 507.23 259.59 504.67 260.50 C 501.27 261.60 497.70 261.30 494.20 261.52 C 491.16 262.20 488.22 263.44 485.03 263.05 C 484.95 260.68 485.13 258.33 486.02 256.12 C 487.42 252.63 486.18 248.79 487.22 245.23 C 488.62 241.04 487.17 236.31 489.68 232.44 C 489.71 230.09 489.55 227.66 490.59 225.48 C 491.29 219.08 493.74 213.04 494.18 206.58 C 496.22 203.62 496.26 199.82 497.25 196.45 C 498.74 193.68 498.57 190.42 499.75 187.55 C 500.37 185.16 502.12 183.09 501.63 180.48 C 501.98 180.09 502.67 179.30 503.02 178.91 C 503.00 178.19 502.98 176.77 502.97 176.05 C 503.39 175.69 504.23 174.96 504.64 174.60 C 504.64 173.53 504.66 172.46 504.70 171.40 C 506.75 167.69 508.13 163.58 509.25 159.49 C 510.21 158.50 510.62 157.22 510.90 155.90 C 511.58 154.76 511.98 153.50 512.19 152.18 C 512.50 151.80 513.12 151.04 513.43 150.65 C 513.80 148.83 514.51 147.10 515.26 145.41 C 518.31 139.29 520.65 132.77 524.05 126.79 C 522.92 125.18 520.88 124.88 519.06 124.94 C 475.36 124.95 431.66 124.95 387.95 124.94 C 384.24 124.96 380.48 124.69 376.84 125.61 Z" />
<path fill="#010101" opacity="1.00" d=" M 393.89 136.84 C 431.70 136.85 469.52 136.78 507.34 136.90 C 506.68 137.76 506.02 138.62 505.37 139.47 C 504.89 141.18 504.34 142.87 503.78 144.56 C 502.01 146.43 501.65 149.08 500.61 151.35 C 499.30 153.94 498.34 156.69 497.75 159.52 C 495.85 162.67 495.26 166.41 493.37 169.58 C 493.35 170.20 493.31 171.45 493.29 172.07 C 492.19 173.31 491.92 174.90 491.79 176.50 C 490.32 179.31 489.29 182.37 488.77 185.50 C 488.10 186.57 487.53 187.72 487.48 189.00 C 487.48 191.65 485.68 193.83 485.81 196.51 C 484.19 198.94 484.71 202.06 483.14 204.50 C 482.96 206.18 483.19 207.97 482.32 209.50 C 481.54 211.37 481.40 213.40 481.35 215.41 C 479.89 217.52 479.91 220.06 479.90 222.52 C 477.84 225.89 479.06 229.97 477.57 233.49 C 476.42 236.26 477.56 239.41 476.28 242.16 C 474.59 246.46 476.61 251.42 474.06 255.48 C 473.59 259.84 474.79 264.43 473.36 268.62 C 473.18 270.40 472.93 272.19 472.39 273.90 C 474.30 275.90 477.10 274.99 479.50 274.87 C 484.25 272.64 490.09 275.22 495.07 273.08 C 499.13 271.94 503.89 273.83 507.50 271.08 C 509.54 270.99 511.58 271.00 513.64 270.93 C 517.36 268.92 521.93 270.57 525.50 268.13 C 527.93 268.00 530.52 268.22 532.66 266.81 C 535.01 266.69 537.52 266.63 539.51 265.19 C 543.55 264.57 547.88 264.26 551.51 262.25 C 554.78 261.03 558.89 261.65 561.60 259.32 C 565.03 258.77 568.50 257.96 571.58 256.30 C 573.89 255.67 576.18 254.86 578.59 254.70 C 579.06 254.33 580.02 253.58 580.49 253.21 C 583.33 252.83 586.09 251.84 588.52 250.31 C 590.43 249.66 592.37 249.04 594.37 248.68 C 597.27 246.92 600.60 246.06 603.53 244.35 C 606.19 243.62 608.60 242.21 611.21 241.31 C 611.19 278.92 611.21 316.54 611.21 354.15 C 609.02 353.19 606.74 352.47 604.48 351.70 C 602.24 350.52 599.89 349.60 597.55 348.66 C 595.13 347.06 592.18 346.80 589.53 345.75 C 586.28 343.30 581.91 343.39 578.41 341.39 C 575.42 340.47 572.45 339.49 569.53 338.36 C 567.57 337.68 565.55 337.18 563.53 336.77 C 559.15 334.45 553.95 334.49 549.45 332.44 C 545.43 331.49 541.28 331.00 537.45 329.41 C 533.76 329.01 530.06 328.28 526.51 327.30 C 525.46 327.02 524.42 326.73 523.40 326.43 C 522.26 326.35 521.14 326.28 520.03 326.20 C 515.19 324.99 510.18 324.73 505.36 323.44 C 502.92 323.32 500.44 323.49 498.06 322.87 C 497.45 322.79 496.25 322.61 495.65 322.53 C 492.06 321.04 487.80 323.20 484.46 321.12 C 481.08 321.14 477.73 320.75 474.41 320.19 C 473.93 320.72 472.97 321.78 472.49 322.31 C 472.80 323.66 473.10 325.02 473.40 326.39 C 474.63 329.77 473.74 333.45 473.98 336.96 C 473.60 340.10 475.86 342.80 475.50 345.94 C 474.79 351.28 477.71 356.14 477.08 361.49 C 479.75 364.72 477.16 369.34 479.91 372.53 C 479.98 374.19 480.01 375.85 480.08 377.51 C 482.52 380.01 480.37 384.02 482.87 386.50 C 483.02 390.95 484.46 395.24 485.75 399.46 C 486.79 402.85 487.01 406.56 488.79 409.66 C 489.40 413.02 490.33 416.38 491.73 419.50 C 492.74 422.88 493.53 426.36 495.18 429.52 C 496.39 431.70 496.09 434.47 497.78 436.44 C 499.10 441.71 501.51 446.55 503.71 451.49 C 504.65 453.55 505.52 455.65 506.21 457.82 C 476.16 457.82 446.10 457.82 416.05 457.82 C 408.66 457.94 401.26 457.56 393.88 458.04 C 395.50 455.37 396.47 452.40 397.76 449.58 C 398.28 447.22 399.31 444.99 400.73 443.04 C 401.02 441.70 401.49 440.43 402.18 439.25 C 402.45 437.62 402.92 436.03 403.78 434.61 C 404.56 431.86 405.28 429.04 406.77 426.57 C 407.28 425.09 407.74 423.60 408.16 422.11 C 408.27 420.45 408.86 418.92 409.73 417.53 C 411.22 411.98 413.19 406.57 414.30 400.92 C 414.48 399.64 415.11 398.51 415.75 397.41 C 416.78 393.43 416.57 388.99 418.78 385.43 C 418.67 381.72 420.30 378.27 420.34 374.58 C 420.79 373.19 421.18 371.78 421.72 370.43 C 423.26 358.95 425.62 347.58 426.16 335.99 C 425.90 333.29 427.06 330.74 426.98 328.06 C 427.03 326.47 426.84 324.81 427.70 323.39 C 427.77 322.82 427.92 321.68 428.00 321.11 C 424.04 319.42 419.71 321.80 415.54 321.08 C 412.65 323.19 408.69 321.12 405.47 322.48 C 402.21 323.01 398.94 323.43 395.64 323.45 C 390.50 324.66 385.26 325.29 380.07 326.21 C 377.49 326.34 374.86 326.66 372.51 327.81 C 370.29 327.93 368.12 328.42 366.05 329.22 C 365.44 329.25 364.21 329.32 363.60 329.36 C 362.20 329.81 360.78 330.19 359.44 330.77 C 358.12 330.96 356.80 331.12 355.51 331.41 C 354.24 331.85 352.95 332.22 351.64 332.42 C 350.23 332.81 348.82 333.17 347.47 333.71 C 344.86 334.37 342.26 335.13 339.58 335.41 C 336.79 336.90 333.70 337.69 330.63 338.40 C 327.77 339.90 324.62 340.79 321.44 341.29 C 321.03 341.69 320.22 342.48 319.81 342.87 C 319.14 342.90 317.80 342.95 317.13 342.98 C 316.09 343.77 314.89 344.22 313.59 344.35 C 310.93 345.69 308.13 346.76 305.23 347.40 C 303.33 349.02 300.86 349.58 298.53 350.25 C 296.10 352.49 292.65 352.71 289.79 354.14 C 289.83 316.50 289.81 278.86 289.81 241.21 C 290.49 241.59 291.85 242.35 292.54 242.73 C 298.89 245.10 304.99 248.21 311.48 250.28 C 312.87 251.17 314.44 251.70 316.04 252.10 C 318.22 252.93 320.46 253.62 322.58 254.62 C 324.55 255.13 326.50 255.74 328.47 256.27 C 331.61 257.76 334.99 258.79 338.44 259.23 C 339.85 260.26 341.52 260.76 343.27 260.89 C 347.25 261.70 351.06 263.09 355.04 263.86 C 357.11 264.57 359.28 264.87 361.46 265.11 C 366.66 268.08 373.18 267.00 378.54 269.64 C 381.54 269.58 384.60 269.59 387.37 270.92 C 389.95 270.89 392.55 270.95 394.96 271.98 C 398.81 273.44 403.07 271.85 406.90 273.44 C 411.61 275.09 416.98 272.74 421.51 274.77 C 422.96 274.98 424.43 275.21 425.84 275.63 C 426.57 274.91 427.31 274.20 428.04 273.48 C 426.69 269.88 427.66 265.86 426.24 262.36 C 426.50 255.73 424.88 249.24 424.74 242.63 C 422.89 236.82 422.50 230.62 421.75 224.59 C 421.19 223.23 420.80 221.81 420.35 220.42 C 419.33 213.03 417.09 205.87 415.73 198.54 C 414.05 195.09 413.69 191.18 412.75 187.50 C 411.23 184.69 410.67 181.50 409.70 178.49 C 408.55 175.23 407.15 171.98 406.81 168.52 C 405.19 166.11 404.43 163.26 403.75 160.48 C 401.70 157.76 401.93 153.96 399.61 151.37 C 399.26 149.61 398.50 147.99 397.75 146.38 C 396.28 143.27 395.15 140.02 393.89 136.84 Z" />
</g>
</svg>
